<svg width="698" height="150" viewBox="0 0 698 150" fill="none" xmlns="http://www.w3.org/2000/svg">
<path d="M304.648 14.896C304.648 21.0773 303.077 25.84 299.936 29.184C296.896 32.528 292.285 35.0107 286.104 36.632C289.043 38.8613 291.323 41.496 292.944 44.536C294.667 47.4747 295.528 50.616 295.528 53.96C295.528 62.472 292.285 68.9067 285.8 73.264C279.416 77.6213 271.411 79.8 261.784 79.8H250.232C243.848 79.8 240.656 81.2693 240.656 84.208C240.656 85.6267 241.365 86.792 242.784 87.704C244.203 88.5147 246.685 88.92 250.232 88.92H277.592C286.509 88.92 293.248 91.2507 297.808 95.912C302.368 100.573 304.648 106.805 304.648 114.608C304.648 120.384 303.128 125.349 300.088 129.504C297.048 133.659 292.944 136.8 287.776 138.928C282.608 141.056 276.984 142.12 270.904 142.12H226.216C222.568 142.12 219.173 141.259 216.032 139.536C212.992 137.813 210.56 135.432 208.736 132.392C206.912 129.453 206 126.16 206 122.512C206 118.56 207.216 114.963 209.648 111.72C212.08 108.579 215.12 106.197 218.768 104.576C216.336 102.853 214.411 100.776 212.992 98.344C211.573 95.912 210.864 93.2773 210.864 90.44C210.864 86.488 212.333 82.9413 215.272 79.8C218.211 76.5573 221.859 74.3787 226.216 73.264C222.264 70.7307 219.123 67.8427 216.792 64.6C214.461 61.256 213.296 57.76 213.296 54.112C213.296 44.7893 217.045 38.152 224.544 34.2C232.144 30.1467 242.176 28.12 254.64 28.12C260.112 28.12 264.52 28.424 267.864 29.032C272.829 25.8907 276.021 23.0533 277.44 20.52C278.96 17.8853 279.72 16.0107 279.72 14.896H304.648ZM254.336 43.928C250.992 43.928 248.256 44.7893 246.128 46.512C244 48.2347 242.936 50.7173 242.936 53.96C242.936 57.304 243.899 59.8373 245.824 61.56C247.851 63.1813 250.688 63.992 254.336 63.992C257.984 63.992 260.821 63.1813 262.848 61.56C264.976 59.8373 266.04 57.304 266.04 53.96C266.04 50.616 264.976 48.1333 262.848 46.512C260.821 44.7893 257.984 43.928 254.336 43.928ZM242.632 110.2C240.301 110.2 238.376 110.808 236.856 112.024C235.437 113.341 234.728 115.165 234.728 117.496C234.728 119.827 235.488 121.701 237.008 123.12C238.528 124.539 240.403 125.248 242.632 125.248H266.344C268.573 125.248 270.448 124.539 271.968 123.12C273.589 121.803 274.4 119.979 274.4 117.648C274.4 115.317 273.64 113.493 272.12 112.176C270.6 110.859 268.675 110.2 266.344 110.2H242.632Z" fill="#ADFF2F"/>
<path d="M358.087 27.968C360.417 27.968 362.495 28.272 364.319 28.88C366.143 29.3867 367.055 29.6907 367.055 29.792V55.176H357.327C351.044 55.176 346.484 56.7973 343.647 60.04C340.911 63.2827 339.543 68.096 339.543 74.48V110.2H309.295V29.944H334.071L336.047 42.104C337.871 37.4427 340.759 33.9467 344.711 31.616C348.663 29.184 353.121 27.968 358.087 27.968Z" fill="#ADFF2F"/>
<path d="M368.778 20.52V0H399.026V20.52H368.778ZM368.778 110.2V29.944H399.026V110.2H368.778Z" fill="#ADFF2F"/>
<path d="M467.579 110.2L464.995 98.8C459.118 107.616 450.606 112.024 439.459 112.024C428.616 112.024 420.256 108.477 414.379 101.384C408.502 94.2907 405.563 83.8027 405.563 69.92C405.563 56.1387 408.502 45.752 414.379 38.76C420.256 31.6667 428.616 28.12 439.459 28.12C448.68 28.12 456.179 31.2107 461.955 37.392V0H492.203V110.2H467.579ZM448.883 50.464C440.168 50.464 435.811 55.6827 435.811 66.12V74.176C435.811 84.512 440.168 89.68 448.883 89.68C453.342 89.68 456.686 88.1093 458.915 84.968C461.144 81.8267 462.259 77.7227 462.259 72.656V67.64C462.259 62.5733 461.144 58.4693 458.915 55.328C456.686 52.0853 453.342 50.464 448.883 50.464Z" fill="#ADFF2F"/>
<path d="M561.326 110.2L558.742 98.8C552.865 107.616 544.353 112.024 533.206 112.024C522.363 112.024 514.003 108.477 508.126 101.384C502.249 94.2907 499.31 83.8027 499.31 69.92C499.31 56.1387 502.249 45.752 508.126 38.76C514.003 31.6667 522.363 28.12 533.206 28.12C542.427 28.12 549.926 31.2107 555.702 37.392V0H585.95V110.2H561.326ZM542.63 50.464C533.915 50.464 529.558 55.6827 529.558 66.12V74.176C529.558 84.512 533.915 89.68 542.63 89.68C547.089 89.68 550.433 88.1093 552.662 84.968C554.891 81.8267 556.006 77.7227 556.006 72.656V67.64C556.006 62.5733 554.891 58.4693 552.662 55.328C550.433 52.0853 547.089 50.464 542.63 50.464Z" fill="#ADFF2F"/>
<path d="M650.397 107.768C646.242 119.016 641.125 127.528 635.045 133.304C629.066 139.181 620.656 142.12 609.813 142.12C603.226 142.12 597.4 141.208 592.333 139.384V121.296H604.493C612.093 121.296 616.602 117.597 618.021 110.2L586.101 29.944H618.629L633.981 83.296H635.045L649.181 29.944H678.973L650.397 107.768Z" fill="#ADFF2F"/>
<path d="M664.925 110.2V79.952H697.149V110.2H664.925Z" fill="#ADFF2F"/>
<path d="M0 75.3138H37.6569V112.343H0V75.3138Z" fill="#ADFF2F"/>
<path d="M37.6569 0H75.3138V37.6569H37.6569V0Z" fill="#ADFF2F"/>
<path d="M37.6569 37.6569H75.3138V75.3136L37.6569 75.3138L37.6569 37.6569Z" fill="#ADFF2F"/>
<path d="M75.3138 0H112.343V37.6569H75.3138V0Z" fill="#ADFF2F"/>
<path d="M112.343 37.6569L150 37.6567V75.3136H112.343L112.343 37.6569Z" fill="#ADFF2F"/>
<path d="M75.3138 75.3136H112.343L112.343 112.343H75.3138L75.3138 75.3136Z" fill="#ADFF2F"/>
<path d="M112.343 112.343L150 112.343V150H112.343L112.343 112.343Z" fill="#ADFF2F"/>
</svg>
